<?xml version="1.0" encoding="UTF-8"?>
<svg xmlns="http://www.w3.org/2000/svg" xmlns:xlink="http://www.w3.org/1999/xlink" width="75px" height="75px" viewBox="0 0 75 75" version="1.1">
<g id="surface1">
<path style=" stroke:none;fill-rule:nonzero;fill:rgb(1.960784%,0%,0%);fill-opacity:1;" d="M 37.558594 63.449219 L 8.800781 34.691406 L 37.558594 5.9375 L 66.316406 34.691406 Z M 8.902344 34.691406 L 37.558594 63.347656 L 66.210938 34.691406 L 37.558594 6.039062 Z M 8.902344 34.691406 "/>
<path style=" stroke:none;fill-rule:evenodd;fill:rgb(41.568627%,22.352941%,2.352941%);fill-opacity:1;" d="M 8.84375 34.6875 L 37.546875 5.984375 L 66.253906 34.6875 L 37.546875 63.394531 Z M 8.84375 34.6875 "/>
<path style=" stroke:none;fill-rule:evenodd;fill:rgb(100%,100%,100%);fill-opacity:1;" d="M 10.210938 34.6875 L 37.546875 7.351562 L 64.886719 34.6875 L 37.546875 62.027344 Z M 10.210938 34.6875 "/>
<path style=" stroke:none;fill-rule:nonzero;fill:rgb(1.960784%,0%,0%);fill-opacity:1;" d="M 37.558594 63.429688 L 8.8125 34.691406 L 8.824219 34.683594 L 37.558594 5.957031 L 66.292969 34.691406 L 66.28125 34.703125 Z M 8.878906 34.691406 L 37.558594 63.371094 L 66.234375 34.691406 L 37.558594 6.015625 Z M 37.558594 62.058594 L 10.179688 34.691406 L 10.191406 34.683594 L 37.558594 7.328125 L 64.921875 34.691406 L 64.910156 34.703125 Z M 10.25 34.691406 L 37.558594 62 L 64.867188 34.691406 L 37.558594 7.386719 Z M 10.25 34.691406 "/>
<path style=" stroke:none;fill-rule:nonzero;fill:rgb(13.72549%,9.411765%,8.235294%);fill-opacity:1;" d="M 31.75 33.53125 C 31.75 33.53125 32.265625 32.863281 33.449219 32.898438 C 34.636719 32.933594 35.625 33.507812 36.0625 33.773438 C 36.5 34.027344 37.855469 34.832031 38.996094 34.75 C 38.996094 34.75 38.234375 35.75 37.121094 36.027344 C 35.992188 36.304688 34.933594 36.339844 33.601562 35.5 C 32.253906 34.660156 31.851562 33.785156 31.75 33.53125 "/>
<path style=" stroke:none;fill-rule:evenodd;fill:rgb(100%,94.117647%,0%);fill-opacity:1;" d="M 28.664062 22.375 L 24.984375 16.761719 L 32.347656 16.761719 Z M 28.664062 22.375 "/>
<path style=" stroke:none;fill-rule:evenodd;fill:rgb(0%,35.686275%,67.058824%);fill-opacity:1;" d="M 39.9375 23.855469 L 39.9375 23.71875 L 39.949219 23.660156 L 39.960938 23.628906 L 39.972656 23.59375 L 39.984375 23.546875 L 39.996094 23.511719 L 40.007812 23.464844 L 40.019531 23.433594 L 40.042969 23.339844 L 40.066406 23.269531 L 40.089844 23.234375 L 40.109375 23.203125 L 40.132812 23.167969 L 40.144531 23.132812 L 40.191406 23.0625 L 40.203125 23.039062 L 40.238281 22.996094 L 40.261719 22.960938 L 40.296875 22.925781 L 40.316406 22.890625 L 40.351562 22.855469 L 40.398438 22.8125 L 40.46875 22.742188 L 40.503906 22.71875 L 40.535156 22.683594 L 40.640625 22.613281 L 40.675781 22.59375 L 40.710938 22.570312 L 40.730469 22.558594 L 40.753906 22.546875 L 40.789062 22.523438 L 40.824219 22.511719 L 40.847656 22.5 L 40.917969 22.476562 L 40.949219 22.464844 L 41.054688 22.429688 L 41.078125 22.417969 L 41.113281 22.40625 L 41.144531 22.394531 L 41.167969 22.386719 L 41.214844 22.375 L 41.238281 22.363281 L 41.308594 22.339844 L 41.710938 22.339844 L 41.769531 22.351562 L 41.800781 22.363281 L 41.894531 22.386719 L 41.929688 22.394531 L 41.964844 22.40625 L 41.996094 22.417969 L 42.089844 22.441406 L 42.160156 22.464844 L 42.191406 22.476562 L 42.214844 22.488281 Z M 45.726562 25.007812 L 45.703125 25.066406 L 45.679688 25.121094 L 45.609375 25.261719 L 45.574219 25.316406 L 45.539062 25.375 L 45.507812 25.433594 L 45.472656 25.503906 L 45.4375 25.546875 L 45.390625 25.628906 L 45.355469 25.6875 L 45.3125 25.753906 L 45.265625 25.8125 L 45.207031 25.882812 L 45.125 25.960938 L 45.058594 26.03125 L 44.988281 26.089844 L 44.929688 26.136719 L 44.875 26.191406 L 44.828125 26.226562 L 44.710938 26.320312 L 44.644531 26.363281 L 44.550781 26.433594 L 44.503906 26.457031 L 44.449219 26.492188 L 44.390625 26.515625 L 44.296875 26.5625 L 44.230469 26.582031 L 44.160156 26.617188 L 44.089844 26.640625 L 44.035156 26.664062 L 43.976562 26.6875 L 43.941406 26.699219 L 43.882812 26.710938 L 43.816406 26.734375 L 43.769531 26.746094 L 43.699219 26.757812 L 43.652344 26.769531 L 43.585938 26.777344 L 43.46875 26.800781 L 43.414062 26.800781 L 43.332031 26.8125 L 42.964844 26.8125 L 42.882812 26.800781 L 42.804688 26.789062 L 42.628906 26.769531 L 42.5625 26.757812 L 42.480469 26.734375 L 42.421875 26.722656 L 42.355469 26.699219 L 42.296875 26.675781 L 42.214844 26.652344 L 42.148438 26.628906 L 42.03125 26.582031 L 41.964844 26.550781 L 41.894531 26.515625 L 41.777344 26.445312 L 41.722656 26.410156 L 41.605469 26.332031 L 41.46875 26.25 L 41.398438 26.203125 L 41.34375 26.15625 L 41.285156 26.101562 L 41.136719 25.960938 L 46.816406 22.546875 L 46.761719 22.40625 L 46.644531 22.15625 L 46.597656 22.0625 L 46.554688 21.960938 L 46.496094 21.855469 L 46.4375 21.753906 L 46.390625 21.660156 L 46.335938 21.566406 L 46.277344 21.476562 L 46.183594 21.339844 L 46.105469 21.222656 L 46.023438 21.121094 L 45.953125 21.015625 L 45.851562 20.902344 L 45.757812 20.796875 L 45.644531 20.671875 L 45.519531 20.542969 L 45.355469 20.394531 L 45.230469 20.292969 L 45.125 20.199219 L 45 20.105469 L 44.894531 20.027344 L 44.746094 19.933594 L 44.65625 19.878906 L 44.527344 19.796875 L 44.414062 19.738281 L 44.308594 19.683594 L 44.195312 19.625 L 44.058594 19.554688 L 43.929688 19.496094 L 43.816406 19.453125 L 43.699219 19.40625 L 43.5625 19.347656 L 43.414062 19.300781 L 43.296875 19.269531 L 43.160156 19.234375 L 43.054688 19.210938 L 42.90625 19.175781 L 42.769531 19.152344 L 42.628906 19.128906 L 42.445312 19.105469 L 42.125 19.082031 L 41.996094 19.070312 L 41.800781 19.0625 L 41.570312 19.070312 L 41.445312 19.082031 L 41.285156 19.09375 L 41.179688 19.105469 L 41.078125 19.117188 L 40.960938 19.128906 L 40.835938 19.152344 L 40.730469 19.175781 L 40.59375 19.199219 L 40.503906 19.222656 L 40.363281 19.257812 L 40.261719 19.289062 L 40.191406 19.3125 L 40.078125 19.347656 L 39.960938 19.394531 L 39.835938 19.441406 L 39.695312 19.496094 L 39.570312 19.554688 L 39.480469 19.601562 L 39.375 19.648438 L 39.269531 19.703125 L 39.167969 19.761719 L 39.074219 19.808594 L 38.984375 19.867188 L 38.878906 19.898438 L 38.742188 19.992188 L 38.628906 20.074219 L 38.523438 20.152344 L 38.421875 20.222656 L 38.304688 20.324219 L 38.203125 20.417969 L 38.074219 20.53125 L 37.949219 20.660156 L 37.800781 20.820312 L 37.695312 20.945312 L 37.613281 21.050781 L 37.523438 21.175781 L 37.441406 21.28125 L 37.351562 21.429688 L 37.292969 21.511719 L 37.210938 21.636719 L 37.15625 21.753906 L 37.097656 21.855469 L 37.039062 21.972656 L 36.972656 22.109375 L 36.914062 22.234375 L 36.867188 22.351562 L 36.820312 22.464844 L 36.773438 22.605469 L 36.695312 22.777344 L 36.660156 22.878906 L 36.625 23.019531 L 36.601562 23.121094 L 36.566406 23.269531 L 36.546875 23.410156 L 36.523438 23.546875 L 36.5 23.730469 L 36.488281 23.890625 L 36.476562 24.054688 L 36.464844 24.191406 L 36.464844 24.617188 L 36.476562 24.742188 L 36.488281 24.902344 L 36.5 25.007812 L 36.511719 25.109375 L 36.523438 25.226562 L 36.546875 25.351562 L 36.566406 25.457031 L 36.589844 25.59375 L 36.613281 25.6875 L 36.648438 25.8125 L 36.683594 25.917969 L 36.707031 25.984375 L 36.742188 26.101562 L 36.832031 26.34375 L 36.890625 26.46875 L 36.9375 26.59375 L 36.980469 26.699219 L 37.027344 26.789062 L 37.085938 26.894531 L 37.144531 26.996094 L 37.1875 27.089844 L 37.246094 27.183594 L 37.304688 27.273438 L 37.394531 27.410156 L 37.476562 27.527344 L 37.558594 27.628906 L 37.625 27.734375 L 37.730469 27.847656 L 37.820312 27.953125 L 37.9375 28.078125 L 38.0625 28.207031 L 38.226562 28.355469 L 38.351562 28.457031 L 38.453125 28.550781 L 38.582031 28.644531 L 38.683594 28.722656 L 38.835938 28.816406 L 38.914062 28.871094 L 39.042969 28.953125 L 39.15625 29.011719 L 39.261719 29.066406 L 39.375 29.125 L 39.511719 29.195312 L 39.640625 29.253906 L 39.753906 29.296875 L 39.871094 29.34375 L 40.007812 29.390625 L 40.15625 29.4375 L 40.273438 29.472656 L 40.410156 29.503906 L 40.515625 29.527344 L 40.664062 29.5625 L 40.9375 29.609375 L 41.125 29.632812 L 41.445312 29.65625 L 41.582031 29.667969 L 41.777344 29.679688 L 42.007812 29.667969 L 42.136719 29.65625 L 42.296875 29.644531 L 42.398438 29.632812 L 42.503906 29.621094 L 42.617188 29.609375 L 42.746094 29.585938 L 42.847656 29.5625 L 42.988281 29.539062 L 43.078125 29.515625 L 43.207031 29.480469 L 43.308594 29.449219 L 43.378906 29.425781 L 43.492188 29.390625 L 43.609375 29.355469 L 43.734375 29.308594 L 43.859375 29.253906 L 43.988281 29.195312 L 44.078125 29.148438 L 44.183594 29.101562 L 44.285156 29.046875 L 44.390625 28.988281 L 44.480469 28.941406 L 44.574219 28.882812 L 44.667969 28.828125 L 44.804688 28.734375 L 44.917969 28.652344 L 45.023438 28.574219 L 45.125 28.503906 L 45.242188 28.402344 L 45.34375 28.308594 L 45.472656 28.195312 L 45.597656 28.066406 L 45.769531 27.882812 L 45.769531 24.960938 L 45.703125 24.960938 Z M 45.726562 25.007812 "/>
<path style=" stroke:none;fill-rule:evenodd;fill:rgb(0%,35.686275%,67.058824%);fill-opacity:1;" d="M 32.96875 16.761719 L 35.785156 16.761719 L 35.785156 29.792969 L 32.394531 29.792969 L 32.394531 24.109375 L 28.675781 29.78125 L 24.925781 24.0625 L 24.925781 29.792969 L 21.535156 29.792969 L 21.535156 16.761719 L 24.375 16.761719 L 28.675781 23.304688 Z M 32.96875 16.761719 "/>
<path style=" stroke:none;fill-rule:evenodd;fill:rgb(0%,35.686275%,67.058824%);fill-opacity:1;" d="M 49.039062 19.027344 L 49.039062 16.945312 L 52.339844 16.945312 L 52.339844 19.027344 L 53.8125 19.027344 L 53.8125 22.15625 L 52.339844 22.15625 L 52.339844 29.804688 L 49.039062 29.804688 L 49.039062 22.15625 L 47.566406 22.15625 L 47.566406 19.027344 Z M 49.039062 19.027344 "/>
<path style=" stroke:none;fill-rule:nonzero;fill:rgb(100%,100%,100%);fill-opacity:1;" d="M 28.664062 22.429688 L 24.925781 16.726562 L 32.414062 16.726562 Z M 25.054688 16.792969 L 28.664062 22.304688 L 32.277344 16.792969 Z M 25.054688 16.792969 "/>
<path style=" stroke:none;fill-rule:evenodd;fill:rgb(89.803922%,0%,7.058824%);fill-opacity:1;" d="M 28.664062 21.417969 L 24.984375 15.804688 L 32.347656 15.804688 Z M 28.664062 21.417969 "/>
<path style=" stroke:none;fill-rule:nonzero;fill:rgb(100%,100%,100%);fill-opacity:1;" d="M 28.664062 21.476562 L 24.925781 15.769531 L 32.414062 15.769531 Z M 25.054688 15.839844 L 28.664062 21.351562 L 32.277344 15.839844 Z M 25.054688 15.839844 "/>
<path style=" stroke:none;fill-rule:evenodd;fill:rgb(89.803922%,0%,7.058824%);fill-opacity:1;" d="M 20.085938 49.703125 L 54.410156 49.703125 L 54.410156 54.238281 L 20.085938 54.238281 Z M 20.085938 49.703125 "/>
<path style=" stroke:none;fill-rule:evenodd;fill:rgb(100%,94.117647%,0%);fill-opacity:1;" d="M 20.085938 49.703125 L 54.410156 49.703125 L 54.410156 50.175781 L 20.085938 50.175781 Z M 20.085938 49.703125 "/>
<path style=" stroke:none;fill-rule:nonzero;fill:rgb(0%,39.607843%,19.607843%);fill-opacity:1;" d="M 29.632812 31.78125 C 29.632812 31.78125 29.953125 31.300781 31.011719 30.976562 C 32.070312 30.65625 33.023438 30.839844 33.636719 31.058594 C 34.246094 31.289062 35.371094 31.769531 36.199219 32.265625 C 37.027344 32.761719 37.925781 33.242188 38.824219 33.519531 C 39.71875 33.796875 41.261719 34.09375 42.125 33.636719 C 42.125 33.636719 41.699219 34.691406 40.605469 35.554688 C 39.511719 36.417969 38.375 37.050781 37.210938 37.246094 C 36.050781 37.441406 34.855469 37.546875 33.3125 36.890625 C 31.769531 36.234375 30.828125 35.027344 30.550781 34.050781 C 30.550781 34.050781 30.988281 35.015625 32.621094 35.890625 C 34.257812 36.765625 35.671875 36.980469 37.144531 36.625 C 38.605469 36.28125 40.179688 35.359375 40.871094 34.429688 C 40.871094 34.429688 40.109375 34.554688 39.074219 34.246094 C 38.039062 33.933594 36.972656 33.394531 36.097656 32.898438 C 35.222656 32.402344 34.003906 31.78125 33.070312 31.542969 C 32.128906 31.324219 30.691406 31.082031 29.632812 31.78125 "/>
<path style=" stroke:none;fill-rule:nonzero;fill:rgb(26.666667%,68.627451%,20.784314%);fill-opacity:1;" d="M 29.273438 32.152344 C 29.273438 32.152344 29.449219 32.839844 30.679688 34.050781 C 31.933594 35.28125 34.039062 36.453125 36.351562 36.351562 C 38.59375 36.246094 40.398438 34.464844 40.398438 34.464844 C 40.078125 34.464844 39.605469 34.417969 39.0625 34.257812 C 38.027344 33.945312 36.960938 33.40625 36.085938 32.910156 C 35.210938 32.402344 33.992188 31.792969 33.058594 31.554688 C 32.128906 31.3125 30.691406 31.082031 29.632812 31.769531 C 29.632812 31.78125 29.34375 32.011719 29.273438 32.152344 "/>
<path style=" stroke:none;fill-rule:nonzero;fill:rgb(100%,94.117647%,0%);fill-opacity:1;" d="M 31.324219 33.242188 C 31.324219 33.242188 31.839844 32.578125 33.023438 32.609375 C 34.210938 32.644531 35.199219 33.222656 35.636719 33.472656 C 36.074219 33.726562 37.429688 34.53125 38.570312 34.453125 C 38.570312 34.453125 37.8125 35.441406 36.695312 35.71875 C 35.578125 35.992188 34.507812 36.027344 33.175781 35.1875 C 31.828125 34.371094 31.425781 33.496094 31.324219 33.242188 "/>
<path style=" stroke:none;fill-rule:nonzero;fill:rgb(0%,39.607843%,19.607843%);fill-opacity:1;" d="M 27.964844 38.464844 C 27.769531 38.511719 27.539062 38.671875 27.664062 38.878906 C 27.78125 39.097656 28.011719 39.097656 28.238281 39.042969 C 28.480469 38.996094 28.964844 38.914062 28.953125 39.15625 C 28.941406 39.398438 28.882812 39.824219 28.804688 40.167969 C 28.734375 40.515625 27.261719 44.734375 27.261719 44.734375 L 29.113281 44.734375 C 29.113281 44.734375 29.757812 43.136719 30.082031 42.515625 C 30.402344 41.894531 30.769531 41.226562 31.082031 40.824219 C 31.390625 40.421875 31.851562 39.835938 32.011719 39.71875 C 32.175781 39.605469 32.554688 39.433594 32.679688 39.582031 C 32.808594 39.730469 32.898438 39.984375 33.035156 40.089844 C 33.175781 40.191406 33.496094 40.296875 33.726562 40.203125 C 33.957031 40.109375 34.210938 39.960938 34.152344 39.445312 C 34.09375 38.925781 34.050781 38.5 33.65625 38.226562 C 33.265625 37.960938 32.566406 38.074219 32.402344 38.191406 C 32.253906 38.304688 31.714844 38.671875 31.519531 38.867188 C 31.324219 39.074219 30.757812 39.664062 30.757812 39.664062 C 30.757812 39.664062 30.941406 38.9375 30.988281 38.617188 C 31.035156 38.292969 30.898438 37.890625 30.496094 37.9375 C 30.070312 37.984375 28.515625 38.328125 27.964844 38.464844 "/>
<path style=" stroke:none;fill-rule:nonzero;fill:rgb(0%,39.607843%,19.607843%);fill-opacity:1;" d="M 36.441406 41.066406 C 36.257812 41.167969 35.9375 41.410156 36.074219 41.605469 C 36.199219 41.8125 36.625 41.734375 36.9375 41.605469 C 37.246094 41.480469 38.203125 41.125 38.707031 40.6875 C 39.214844 40.238281 39.695312 39.742188 39.789062 39.179688 C 39.882812 38.628906 39.664062 38.007812 38.949219 37.960938 C 38.234375 37.925781 36.785156 38.121094 35.785156 38.984375 C 34.785156 39.847656 34.015625 40.972656 33.714844 41.757812 C 33.417969 42.539062 33.175781 43.722656 33.832031 44.4375 C 34.484375 45.160156 36.558594 44.734375 37.5 44.285156 C 38.441406 43.828125 39.316406 43.238281 39.707031 42.929688 C 40.101562 42.628906 40.457031 42.332031 40.664062 42.125 C 40.871094 41.90625 40.972656 41.617188 40.777344 41.503906 C 40.59375 41.386719 40.179688 41.539062 39.914062 41.746094 C 39.652344 41.953125 38.914062 42.492188 38.441406 42.792969 C 37.972656 43.089844 36.9375 43.6875 36.304688 43.699219 C 35.683594 43.710938 35.441406 43.355469 35.476562 42.792969 C 35.511719 42.214844 35.75 41.285156 36.027344 40.8125 C 36.304688 40.339844 36.890625 39.480469 37.179688 39.25 C 37.464844 39.007812 37.671875 38.867188 37.9375 38.890625 C 38.203125 38.914062 38.28125 39.457031 38.097656 39.765625 C 37.914062 40.078125 37.660156 40.308594 37.339844 40.515625 C 37.050781 40.722656 36.71875 40.917969 36.441406 41.066406 "/>
<path style=" stroke:none;fill-rule:nonzero;fill:rgb(0%,39.607843%,19.607843%);fill-opacity:1;" d="M 42.550781 38.191406 C 42.054688 38.464844 41.539062 38.847656 41.421875 39.109375 C 41.285156 39.433594 41.15625 39.902344 41.332031 40.273438 C 41.503906 40.640625 41.882812 41.101562 42.214844 41.492188 C 42.550781 41.882812 43.101562 42.515625 43 43 C 42.894531 43.480469 42.640625 43.722656 42.214844 43.78125 C 41.789062 43.839844 41.433594 43.757812 41.179688 43.574219 C 40.929688 43.402344 40.457031 43.261719 40.25 43.402344 C 40.042969 43.527344 39.6875 44.066406 40.203125 44.460938 C 40.710938 44.851562 41.59375 44.964844 42.226562 44.699219 C 42.859375 44.4375 43.5625 44 44.035156 43.457031 C 44.503906 42.917969 44.769531 42.492188 44.699219 41.976562 C 44.621094 41.457031 44.355469 40.90625 44.011719 40.570312 C 43.664062 40.226562 43.101562 39.695312 43.042969 39.28125 C 42.988281 38.867188 43.261719 38.628906 43.46875 38.628906 C 43.675781 38.628906 43.964844 38.660156 44.171875 38.8125 C 44.378906 38.960938 44.722656 39.144531 45.09375 39.085938 C 45.460938 39.042969 45.609375 38.847656 45.539062 38.398438 C 45.472656 37.949219 44.632812 37.546875 43.894531 37.707031 C 43.320312 37.84375 42.859375 38.019531 42.550781 38.191406 "/>
<path style=" stroke:none;fill-rule:nonzero;fill:rgb(0%,39.607843%,19.607843%);fill-opacity:1;" d="M 50.554688 34.269531 C 49.992188 34.429688 49.0625 34.867188 48.566406 35.40625 C 48.277344 35.71875 47.761719 36.558594 47.554688 37.121094 C 47.347656 37.671875 46.761719 38.914062 46.472656 40.007812 C 46.183594 41.101562 45.253906 43.882812 45.148438 44.136719 C 45.046875 44.390625 44.816406 44.894531 44.964844 44.976562 C 45.171875 45.082031 45.550781 44.929688 45.792969 44.816406 C 46.035156 44.699219 46.378906 44.5625 46.496094 44.492188 C 46.609375 44.4375 46.667969 44.402344 46.738281 44.148438 C 46.875 43.664062 47.1875 43.042969 47.371094 42.710938 C 47.703125 42.125 48.3125 41.355469 48.714844 40.996094 C 49.105469 40.640625 49.660156 40.25 49.890625 40.121094 C 50.117188 39.996094 50.429688 39.859375 50.441406 40.101562 C 50.453125 40.410156 50.269531 40.949219 50.117188 41.34375 C 49.96875 41.734375 49.519531 42.652344 49.441406 43.066406 C 49.359375 43.46875 49.210938 44.207031 49.589844 44.667969 C 49.96875 45.125 50.730469 44.976562 51.210938 44.839844 C 51.695312 44.699219 52.40625 44.367188 52.855469 44.046875 C 53.304688 43.710938 53.765625 43.390625 53.914062 43.238281 C 54.0625 43.089844 54.054688 42.894531 53.925781 42.824219 C 53.789062 42.746094 53.433594 42.847656 53.246094 43.011719 C 53.0625 43.171875 52.625 43.480469 52.375 43.644531 C 52.121094 43.804688 51.589844 44.113281 51.382812 44.011719 C 51.175781 43.90625 51.199219 43.585938 51.257812 43.25 C 51.316406 42.917969 51.753906 41.789062 51.890625 41.515625 C 52.015625 41.238281 52.386719 40.398438 52.464844 40.101562 C 52.546875 39.789062 52.671875 39.085938 52.050781 38.824219 C 51.417969 38.558594 50.554688 38.984375 49.992188 39.304688 C 49.429688 39.628906 48.265625 40.296875 47.910156 40.546875 C 47.910156 40.546875 48.933594 37.960938 49.347656 37.167969 C 49.761719 36.371094 50.324219 35.453125 50.648438 35.175781 C 50.96875 34.898438 51.328125 34.726562 51.613281 34.832031 C 51.902344 34.933594 52.488281 35.210938 52.820312 35.128906 C 53.15625 35.050781 53.328125 34.683594 53.019531 34.347656 C 52.707031 34.003906 52.109375 33.96875 51.589844 34.0625 C 51.074219 34.117188 50.554688 34.269531 50.554688 34.269531 "/>
<path style=" stroke:none;fill-rule:nonzero;fill:rgb(0%,39.607843%,19.607843%);fill-opacity:1;" d="M 32.554688 32.933594 C 32.253906 32.667969 31.65625 32.21875 31.011719 31.988281 C 30.34375 31.75 29.367188 31.585938 28.195312 31.644531 C 27.019531 31.714844 25.652344 32.371094 24.777344 33.117188 C 24.042969 33.738281 23.191406 35.050781 22.8125 36.003906 C 22.625 36.476562 22.257812 37.5 22.050781 38.375 C 21.339844 38.363281 20.9375 38.339844 20.9375 38.339844 C 20.382812 38.339844 19.832031 38.71875 19.75 38.925781 C 19.683594 39.132812 20.050781 39.292969 20.257812 39.292969 C 20.324219 39.292969 21.050781 39.304688 21.949219 39.316406 C 21.914062 39.46875 21.890625 39.59375 21.878906 39.6875 C 21.753906 40.445312 21.316406 42.203125 20.914062 43.734375 C 20.519531 45.265625 19.347656 47.898438 18.84375 48.796875 C 18.335938 49.691406 17.21875 50.695312 15.414062 51.121094 C 13.609375 51.546875 12.34375 51.175781 11.375 50.867188 C 10.410156 50.542969 10.722656 51.164062 12.367188 51.601562 C 14.148438 52.085938 15.527344 52.085938 17.484375 51.5 C 19.453125 50.914062 20.683594 48.667969 21.109375 47.703125 C 21.535156 46.738281 22.316406 44.863281 22.605469 43.964844 C 22.890625 43.066406 23.488281 41.261719 23.730469 40.066406 C 23.777344 39.8125 23.847656 39.570312 23.914062 39.316406 C 24.914062 39.328125 25.753906 39.339844 25.859375 39.328125 C 26.136719 39.316406 26.46875 39.203125 26.800781 39.03125 C 26.996094 38.925781 27.042969 38.683594 27.019531 38.617188 C 26.984375 38.535156 26.746094 38.386719 26.363281 38.386719 C 26.261719 38.386719 25.296875 38.375 24.203125 38.363281 C 24.410156 37.71875 24.640625 37.0625 24.859375 36.371094 C 25.273438 35.039062 25.652344 34.394531 26.777344 33.4375 C 27.90625 32.472656 29.550781 32.394531 30.367188 32.425781 C 31.183594 32.460938 32.105469 32.933594 32.542969 33.265625 C 32.738281 33.417969 32.945312 33.636719 33.070312 33.566406 C 33.199219 33.507812 32.851562 33.199219 32.554688 32.933594 "/>
<path style=" stroke:none;fill-rule:nonzero;fill:rgb(26.666667%,68.627451%,20.784314%);fill-opacity:1;" d="M 30.113281 40.824219 L 29.964844 40.789062 L 30.355469 39.605469 L 30.355469 39.59375 C 30.414062 39.398438 30.585938 38.9375 30.632812 38.683594 C 30.667969 38.511719 30.679688 38.203125 30.679688 38.203125 C 30.726562 38.246094 30.792969 38.375 30.757812 38.695312 C 30.726562 38.960938 30.574219 39.445312 30.519531 39.640625 Z M 30.113281 40.824219 "/>
<path style=" stroke:none;fill-rule:nonzero;fill:rgb(26.666667%,68.627451%,20.784314%);fill-opacity:1;" d="M 33.53125 40.078125 L 33.253906 39.996094 C 33.253906 39.996094 33.785156 40.089844 33.785156 39.433594 L 33.785156 39.410156 C 33.785156 38.695312 33.507812 38.351562 33.507812 38.351562 C 33.808594 38.558594 33.875 38.9375 33.933594 39.410156 L 33.933594 39.433594 C 33.933594 39.765625 33.820312 39.972656 33.601562 40.054688 Z M 33.53125 40.078125 "/>
<path style=" stroke:none;fill-rule:nonzero;fill:rgb(26.666667%,68.627451%,20.784314%);fill-opacity:1;" d="M 28.882812 44.609375 L 27.585938 44.609375 L 27.628906 44.515625 L 28.757812 44.527344 C 28.804688 44.425781 28.859375 44.273438 28.929688 44.125 C 29.171875 43.574219 29.492188 42.8125 29.699219 42.410156 C 29.976562 41.882812 30.378906 41.136719 30.726562 40.6875 C 30.792969 40.582031 31.460938 39.707031 31.714844 39.523438 C 31.804688 39.457031 32.046875 39.261719 32.382812 39.261719 C 32.691406 39.25 32.726562 39.457031 32.726562 39.457031 L 32.414062 39.363281 C 32.128906 39.386719 31.921875 39.535156 31.839844 39.59375 L 31.828125 39.605469 C 31.585938 39.777344 30.898438 40.699219 30.863281 40.742188 C 30.527344 41.191406 30.125 41.941406 29.851562 42.457031 C 29.644531 42.847656 29.320312 43.609375 29.078125 44.160156 C 29.011719 44.320312 28.953125 44.472656 28.894531 44.574219 Z M 28.882812 44.609375 "/>
<path style=" stroke:none;fill-rule:nonzero;fill:rgb(26.666667%,68.627451%,20.784314%);fill-opacity:1;" d="M 28.011719 38.890625 L 27.8125 38.835938 L 28.066406 38.8125 L 28.308594 38.753906 L 28.664062 38.71875 C 28.929688 38.730469 29 38.890625 29 38.890625 L 28.644531 38.800781 L 28.378906 38.847656 L 28.148438 38.878906 Z M 28.011719 38.890625 "/>
<path style=" stroke:none;fill-rule:nonzero;fill:rgb(26.666667%,68.627451%,20.784314%);fill-opacity:1;" d="M 35.53125 43.734375 C 35.210938 43.5625 35.039062 43.207031 35.074219 42.757812 C 35.105469 42.171875 35.40625 41.226562 35.660156 40.6875 C 35.867188 40.25 36.328125 39.511719 36.867188 39.03125 C 37.71875 38.28125 38.074219 38.730469 38.074219 38.730469 L 37.832031 38.683594 C 37.488281 38.683594 37.28125 38.902344 36.992188 39.121094 C 36.558594 39.445312 35.992188 40.328125 35.796875 40.730469 C 35.578125 41.179688 35.335938 42.160156 35.246094 42.722656 C 35.164062 43.285156 35.53125 43.734375 35.53125 43.734375 "/>
<path style=" stroke:none;fill-rule:nonzero;fill:rgb(26.666667%,68.627451%,20.784314%);fill-opacity:1;" d="M 35.105469 44.667969 C 34.773438 44.667969 34.3125 44.667969 34.09375 44.425781 C 34.09375 44.425781 34.335938 44.597656 35.085938 44.585938 L 35.097656 44.585938 C 35.832031 44.585938 36.71875 44.285156 37.257812 44.035156 C 38.226562 43.5625 39.085938 42.964844 39.410156 42.722656 C 39.695312 42.492188 40.109375 42.171875 40.328125 41.941406 L 40.445312 41.769531 L 40.617188 41.734375 L 40.457031 42.007812 C 40.226562 42.238281 39.8125 42.574219 39.523438 42.804688 C 39.203125 43.054688 38.339844 43.652344 37.351562 44.136719 C 36.796875 44.402344 35.902344 44.679688 35.128906 44.679688 L 35.105469 44.679688 Z M 35.105469 44.667969 "/>
<path style=" stroke:none;fill-rule:nonzero;fill:rgb(26.666667%,68.627451%,20.784314%);fill-opacity:1;" d="M 36.394531 41.550781 L 36.304688 41.503906 L 36.382812 41.421875 L 36.707031 41.332031 L 36.820312 41.285156 C 37.1875 41.136719 37.972656 40.824219 38.386719 40.46875 C 38.8125 40.101562 39.261719 39.652344 39.363281 39.144531 C 39.488281 38.523438 39.25 38.257812 39.25 38.257812 C 39.558594 38.421875 39.59375 38.765625 39.535156 39.121094 C 39.445312 39.664062 38.9375 40.167969 38.511719 40.535156 C 38.085938 40.917969 37.292969 41.226562 36.914062 41.375 L 36.808594 41.421875 Z M 36.394531 41.550781 "/>
<path style=" stroke:none;fill-rule:nonzero;fill:rgb(26.666667%,68.627451%,20.784314%);fill-opacity:1;" d="M 41.34375 44.667969 C 41.042969 44.667969 40.710938 44.621094 40.457031 44.4375 C 40.457031 44.4375 41.078125 44.757812 41.941406 44.402344 C 42.78125 44.058594 43.332031 43.6875 43.664062 43.296875 C 44.113281 42.792969 44.308594 42.421875 44.296875 41.984375 C 44.273438 41.605469 44.078125 41.15625 43.769531 40.777344 L 43.597656 40.582031 C 43.195312 40.179688 42.710938 39.742188 42.640625 39.269531 C 42.550781 38.695312 42.976562 38.363281 43.425781 38.363281 C 43.828125 38.363281 44.078125 38.488281 44.390625 38.671875 C 44.503906 38.742188 44.6875 38.855469 44.976562 38.800781 C 45.082031 38.777344 45.113281 38.707031 45.105469 38.375 C 45.09375 38.214844 44.917969 38.027344 44.917969 38.027344 C 45.105469 38.132812 45.21875 38.292969 45.230469 38.410156 C 45.289062 38.824219 45.207031 38.878906 45.023438 38.902344 C 44.746094 38.9375 44.472656 38.789062 44.332031 38.695312 C 44.101562 38.535156 43.792969 38.453125 43.445312 38.476562 C 43.078125 38.488281 42.722656 38.777344 42.804688 39.28125 C 42.871094 39.730469 43.367188 40.25 43.746094 40.617188 L 43.839844 40.722656 C 44.148438 41.054688 44.378906 41.515625 44.449219 41.984375 C 44.515625 42.445312 44.273438 42.824219 43.816406 43.355469 C 43.46875 43.746094 42.917969 44.148438 42.089844 44.515625 C 41.882812 44.609375 41.605469 44.667969 41.34375 44.667969 "/>
<path style=" stroke:none;fill-rule:nonzero;fill:rgb(26.666667%,68.627451%,20.784314%);fill-opacity:1;" d="M 47.324219 41.136719 L 47.242188 41.066406 L 47.484375 40.410156 C 47.496094 40.386719 48.507812 37.820312 48.933594 37.003906 C 49.324219 36.257812 49.921875 35.269531 50.292969 34.945312 C 50.648438 34.636719 51.003906 34.476562 51.359375 34.476562 L 51.742188 34.53125 L 51.972656 34.613281 C 52.167969 34.683594 52.476562 34.808594 52.636719 34.808594 L 52.648438 34.808594 L 52.800781 34.714844 C 52.867188 34.554688 52.789062 34.40625 52.789062 34.40625 L 52.878906 34.761719 L 52.695312 34.910156 L 52.636719 34.910156 C 52.441406 34.910156 52.132812 34.785156 51.902344 34.691406 L 51.683594 34.613281 L 51.382812 34.566406 C 51.074219 34.566406 50.75 34.714844 50.417969 34.992188 C 50.050781 35.304688 49.476562 36.28125 49.082031 37.027344 C 48.65625 37.832031 47.644531 40.398438 47.632812 40.421875 L 47.414062 41.019531 Z M 47.324219 41.136719 "/>
<path style=" stroke:none;fill-rule:nonzero;fill:rgb(26.666667%,68.627451%,20.784314%);fill-opacity:1;" d="M 50.832031 43.160156 C 50.925781 42.804688 51.351562 41.628906 51.476562 41.363281 C 51.601562 41.089844 51.960938 40.273438 52.027344 39.984375 C 52.144531 39.535156 52.0625 39.109375 52.0625 39.109375 C 52.210938 39.28125 52.28125 39.628906 52.179688 40.019531 C 52.109375 40.308594 51.753906 41.136719 51.613281 41.410156 C 51.488281 41.675781 51.0625 42.8125 51.003906 43.171875 C 50.957031 43.46875 50.914062 43.851562 51.097656 44.058594 C 51.121094 44.058594 50.648438 43.859375 50.832031 43.160156 "/>
<path style=" stroke:none;fill-rule:nonzero;fill:rgb(26.666667%,68.627451%,20.784314%);fill-opacity:1;" d="M 50.359375 44.769531 C 50.027344 44.769531 49.890625 44.667969 49.808594 44.5625 C 49.808594 44.5625 50.085938 44.65625 50.347656 44.65625 C 50.53125 44.65625 50.761719 44.621094 51.027344 44.539062 C 51.441406 44.425781 52.121094 44.125 52.558594 43.804688 C 53.027344 43.457031 53.695312 43.054688 53.695312 43.054688 C 53.59375 43.230469 53.050781 43.621094 52.671875 43.882812 C 52.210938 44.21875 51.523438 44.527344 51.097656 44.644531 C 50.808594 44.722656 50.554688 44.769531 50.359375 44.769531 "/>
<path style=" stroke:none;fill-rule:nonzero;fill:rgb(26.666667%,68.627451%,20.784314%);fill-opacity:1;" d="M 45.277344 44.769531 L 45.183594 44.746094 L 45.207031 44.667969 L 45.496094 44.539062 L 45.539062 44.515625 L 45.734375 44.449219 L 45.910156 44.390625 L 46.230469 44.242188 L 46.242188 44.230469 C 46.289062 44.207031 46.300781 44.195312 46.347656 44.046875 C 46.484375 43.574219 46.769531 42.964844 47 42.550781 C 47.324219 41.976562 47.96875 41.15625 48.394531 40.753906 C 48.785156 40.386719 49.300781 39.996094 49.566406 39.847656 C 49.832031 39.695312 50.039062 39.628906 50.234375 39.617188 C 50.566406 39.605469 50.578125 39.835938 50.578125 39.835938 L 50.292969 39.753906 C 50.140625 39.753906 49.957031 39.8125 49.726562 39.949219 C 49.476562 40.101562 48.910156 40.503906 48.519531 40.847656 C 48.082031 41.238281 47.460938 42.019531 47.140625 42.597656 C 46.910156 43 46.621094 43.597656 46.496094 44.066406 C 46.449219 44.242188 46.425781 44.265625 46.347656 44.308594 L 46.335938 44.320312 L 46 44.472656 L 45.828125 44.550781 L 45.65625 44.621094 L 45.609375 44.644531 Z M 45.277344 44.769531 "/>
<path style=" stroke:none;fill-rule:nonzero;fill:rgb(26.666667%,68.627451%,20.784314%);fill-opacity:1;" d="M 23.949219 38.453125 L 23.867188 38.5 L 23.800781 38.453125 C 23.835938 38.339844 23.855469 38.15625 23.902344 37.996094 C 23.949219 37.820312 23.996094 37.648438 24.042969 37.511719 C 24.167969 37.121094 24.304688 36.707031 24.445312 36.28125 C 24.882812 34.855469 25.316406 34.199219 26.445312 33.230469 C 27.574219 32.265625 29.125 32.128906 29.976562 32.128906 L 30.390625 32.152344 C 31.253906 32.289062 31.53125 32.578125 31.53125 32.578125 C 31.277344 32.402344 30.609375 32.265625 30.355469 32.253906 L 30.046875 32.242188 C 29.21875 32.242188 27.675781 32.382812 26.582031 33.324219 C 25.46875 34.277344 25.042969 34.921875 24.617188 36.339844 C 24.488281 36.765625 24.351562 37.167969 24.214844 37.570312 C 24.167969 37.707031 24.121094 37.878906 24.074219 38.050781 C 24.019531 38.191406 23.996094 38.339844 23.949219 38.453125 "/>
<path style=" stroke:none;fill-rule:nonzero;fill:rgb(26.666667%,68.627451%,20.784314%);fill-opacity:1;" d="M 14.632812 51.773438 C 13.757812 51.742188 13.238281 51.671875 12.640625 51.535156 C 12.640625 51.535156 13.964844 51.683594 14.679688 51.671875 C 15.65625 51.660156 16.425781 51.511719 17.300781 51.234375 C 19.234375 50.625 20.40625 48.300781 20.730469 47.589844 C 21.175781 46.585938 21.9375 44.734375 22.210938 43.871094 C 22.246094 43.746094 22.292969 43.609375 22.339844 43.457031 C 22.648438 42.480469 23.121094 41.007812 23.328125 39.996094 C 23.375 39.765625 23.433594 39.523438 23.511719 39.238281 L 23.570312 39.019531 L 23.878906 39.019531 C 24.777344 39.03125 25.351562 39.03125 25.640625 39.03125 L 25.800781 39.03125 C 25.894531 39.03125 26.34375 38.972656 26.515625 38.765625 L 26.628906 38.617188 L 26.640625 38.847656 C 26.273438 39.121094 25.984375 39.132812 25.859375 39.132812 L 25.664062 39.144531 C 25.375 39.144531 24.800781 39.144531 23.902344 39.132812 L 23.707031 39.132812 L 23.671875 39.269531 C 23.59375 39.558594 23.535156 39.800781 23.488281 40.03125 C 23.28125 41.054688 22.8125 42.527344 22.5 43.503906 C 22.453125 43.652344 22.40625 43.792969 22.375 43.917969 C 22.109375 44.78125 21.339844 46.632812 20.890625 47.632812 C 20.566406 48.359375 19.335938 50.808594 17.359375 51.371094 C 16.277344 51.671875 15.585938 51.808594 14.632812 51.773438 "/>
<path style=" stroke:none;fill-rule:nonzero;fill:rgb(26.666667%,68.627451%,20.784314%);fill-opacity:1;" d="M 22.234375 39.121094 L 21.292969 39.109375 C 20.945312 39.109375 20.28125 39.132812 20.1875 39.109375 L 20.074219 39.019531 C 20.164062 39.054688 20.542969 39.042969 21.328125 39.054688 L 22.269531 39.054688 Z M 22.234375 39.121094 "/>
<path style=" stroke:none;fill-rule:nonzero;fill:rgb(100%,100%,100%);fill-opacity:1;" d="M 21.453125 52.753906 L 22.015625 52.695312 C 22.050781 52.878906 22.121094 53.019531 22.222656 53.109375 C 22.328125 53.203125 22.464844 53.234375 22.648438 53.234375 C 22.832031 53.234375 22.972656 53.203125 23.074219 53.121094 L 23.214844 52.84375 L 23.15625 52.671875 L 22.949219 52.546875 C 22.878906 52.523438 22.730469 52.476562 22.488281 52.417969 C 22.179688 52.339844 21.960938 52.246094 21.832031 52.132812 C 21.660156 51.972656 21.566406 51.785156 21.566406 51.558594 C 21.566406 51.40625 21.613281 51.269531 21.695312 51.144531 C 21.773438 51.015625 21.902344 50.914062 22.050781 50.855469 C 22.210938 50.785156 22.394531 50.75 22.613281 50.75 C 22.972656 50.75 23.246094 50.832031 23.433594 50.992188 C 23.617188 51.152344 23.707031 51.359375 23.71875 51.625 L 23.144531 51.648438 C 23.121094 51.5 23.0625 51.394531 22.984375 51.328125 C 22.902344 51.257812 22.777344 51.234375 22.613281 51.234375 C 22.441406 51.234375 22.316406 51.269531 22.222656 51.339844 L 22.132812 51.511719 L 22.222656 51.683594 C 22.292969 51.742188 22.476562 51.808594 22.753906 51.878906 C 23.039062 51.949219 23.246094 52.015625 23.375 52.085938 L 23.683594 52.375 C 23.765625 52.5 23.800781 52.648438 23.800781 52.832031 C 23.800781 52.996094 23.753906 53.15625 23.660156 53.292969 C 23.570312 53.433594 23.441406 53.546875 23.269531 53.617188 C 23.109375 53.683594 22.902344 53.71875 22.648438 53.71875 C 22.292969 53.71875 22.003906 53.640625 21.808594 53.464844 C 21.601562 53.328125 21.488281 53.074219 21.453125 52.753906 "/>
<path style=" stroke:none;fill-rule:nonzero;fill:rgb(100%,100%,100%);fill-opacity:1;" d="M 24.363281 50.820312 L 24.9375 50.820312 L 24.9375 52.375 C 24.9375 52.613281 24.949219 52.777344 24.960938 52.855469 L 25.132812 53.144531 C 25.226562 53.214844 25.351562 53.246094 25.515625 53.246094 C 25.675781 53.246094 25.800781 53.214844 25.882812 53.144531 L 26.03125 52.890625 C 26.054688 52.800781 26.054688 52.625 26.054688 52.40625 L 26.054688 50.820312 L 26.628906 50.820312 L 26.628906 52.328125 C 26.628906 52.671875 26.617188 52.914062 26.582031 53.050781 C 26.550781 53.191406 26.492188 53.316406 26.410156 53.410156 C 26.332031 53.5 26.214844 53.582031 26.078125 53.640625 C 25.9375 53.695312 25.753906 53.730469 25.523438 53.730469 C 25.25 53.730469 25.042969 53.695312 24.902344 53.640625 C 24.765625 53.570312 24.652344 53.488281 24.570312 53.386719 L 24.410156 53.0625 C 24.375 52.902344 24.351562 52.660156 24.351562 52.339844 L 24.351562 50.820312 Z M 24.363281 50.820312 "/>
<path style=" stroke:none;fill-rule:nonzero;fill:rgb(100%,100%,100%);fill-opacity:1;" d="M 27.941406 51.304688 L 27.941406 52.121094 L 28.261719 52.121094 C 28.492188 52.121094 28.644531 52.109375 28.722656 52.074219 L 28.90625 51.9375 L 28.976562 51.71875 L 28.882812 51.464844 L 28.652344 51.339844 C 28.585938 51.328125 28.445312 51.316406 28.238281 51.316406 L 27.941406 51.316406 Z M 27.355469 53.683594 L 27.355469 50.820312 L 28.285156 50.820312 C 28.632812 50.820312 28.859375 50.832031 28.976562 50.867188 C 29.136719 50.914062 29.273438 51.003906 29.390625 51.144531 C 29.503906 51.292969 29.5625 51.476562 29.5625 51.695312 C 29.5625 51.867188 29.527344 52.015625 29.472656 52.144531 L 29.230469 52.429688 L 28.929688 52.570312 C 28.792969 52.59375 28.597656 52.613281 28.332031 52.613281 L 27.953125 52.613281 L 27.953125 53.695312 L 27.355469 53.695312 Z M 27.355469 53.683594 "/>
<path style=" stroke:none;fill-rule:nonzero;fill:rgb(100%,100%,100%);fill-opacity:1;" d="M 30.125 53.683594 L 30.125 50.820312 L 32.253906 50.820312 L 32.253906 51.304688 L 30.703125 51.304688 L 30.703125 51.949219 L 32.140625 51.949219 L 32.140625 52.429688 L 30.703125 52.429688 L 30.703125 53.203125 L 32.300781 53.203125 L 32.300781 53.683594 Z M 30.125 53.683594 "/>
<path style=" stroke:none;fill-rule:nonzero;fill:rgb(100%,100%,100%);fill-opacity:1;" d="M 33.472656 52.039062 L 33.898438 52.039062 C 34.175781 52.039062 34.347656 52.027344 34.417969 52.003906 L 34.578125 51.878906 L 34.636719 51.660156 L 34.554688 51.429688 L 34.335938 51.316406 C 34.289062 51.304688 34.152344 51.304688 33.910156 51.304688 L 33.472656 51.304688 Z M 32.898438 53.683594 L 32.898438 50.820312 L 34.117188 50.820312 C 34.429688 50.820312 34.648438 50.84375 34.785156 50.902344 C 34.921875 50.945312 35.039062 51.039062 35.117188 51.175781 C 35.199219 51.304688 35.246094 51.464844 35.246094 51.625 C 35.246094 51.84375 35.1875 52.015625 35.0625 52.15625 C 34.933594 52.292969 34.75 52.386719 34.496094 52.417969 L 34.808594 52.660156 C 34.890625 52.753906 35.003906 52.902344 35.140625 53.121094 L 35.488281 53.683594 L 34.796875 53.683594 L 34.382812 53.0625 C 34.234375 52.84375 34.128906 52.695312 34.070312 52.636719 L 33.898438 52.523438 L 33.613281 52.488281 L 33.496094 52.488281 L 33.496094 53.683594 Z M 32.898438 53.683594 "/>
<path style=" stroke:none;fill-rule:nonzero;fill:rgb(100%,100%,100%);fill-opacity:1;" d="M 35.878906 53.683594 L 35.878906 50.820312 L 36.742188 50.820312 L 37.257812 52.777344 L 37.777344 50.820312 L 38.640625 50.820312 L 38.640625 53.683594 L 38.109375 53.683594 L 38.109375 51.429688 L 37.535156 53.683594 L 36.980469 53.683594 L 36.417969 51.429688 L 36.417969 53.683594 Z M 35.878906 53.683594 "/>
<path style=" stroke:none;fill-rule:nonzero;fill:rgb(100%,100%,100%);fill-opacity:1;" d="M 40.835938 52.558594 L 40.445312 51.5 L 40.054688 52.558594 Z M 41.90625 53.683594 L 41.273438 53.683594 L 41.019531 53.027344 L 39.871094 53.027344 L 39.628906 53.683594 L 39.019531 53.683594 L 40.132812 50.820312 L 40.742188 50.820312 Z M 41.90625 53.683594 "/>
<path style=" stroke:none;fill-rule:nonzero;fill:rgb(100%,100%,100%);fill-opacity:1;" d="M 42.894531 52.039062 L 43.320312 52.039062 C 43.597656 52.039062 43.769531 52.027344 43.839844 52.003906 L 44 51.878906 L 44.058594 51.660156 L 43.976562 51.429688 L 43.757812 51.316406 C 43.710938 51.304688 43.574219 51.304688 43.332031 51.304688 L 42.882812 51.304688 L 42.882812 52.039062 Z M 42.308594 53.683594 L 42.308594 50.820312 L 43.527344 50.820312 C 43.839844 50.820312 44.058594 50.84375 44.195312 50.902344 C 44.332031 50.945312 44.449219 51.039062 44.527344 51.175781 C 44.609375 51.304688 44.65625 51.464844 44.65625 51.625 C 44.65625 51.84375 44.585938 52.015625 44.472656 52.15625 C 44.34375 52.292969 44.160156 52.386719 43.90625 52.417969 L 44.21875 52.660156 C 44.296875 52.753906 44.402344 52.902344 44.550781 53.121094 L 44.894531 53.683594 L 44.207031 53.683594 L 43.792969 53.0625 C 43.644531 52.84375 43.539062 52.695312 43.480469 52.636719 L 43.308594 52.523438 L 43.019531 52.488281 L 42.90625 52.488281 L 42.90625 53.683594 Z M 42.308594 53.683594 "/>
<path style=" stroke:none;fill-rule:nonzero;fill:rgb(100%,100%,100%);fill-opacity:1;" d="M 45.3125 53.683594 L 45.3125 50.820312 L 45.886719 50.820312 L 45.886719 52.097656 L 47.046875 50.820312 L 47.828125 50.820312 L 46.75 51.9375 L 47.886719 53.683594 L 47.140625 53.683594 L 46.355469 52.351562 L 45.886719 52.820312 L 45.886719 53.683594 Z M 45.3125 53.683594 "/>
<path style=" stroke:none;fill-rule:nonzero;fill:rgb(100%,100%,100%);fill-opacity:1;" d="M 48.289062 53.683594 L 48.289062 50.820312 L 50.40625 50.820312 L 50.40625 51.304688 L 48.863281 51.304688 L 48.863281 51.949219 L 50.304688 51.949219 L 50.304688 52.429688 L 48.863281 52.429688 L 48.863281 53.203125 L 50.464844 53.203125 L 50.464844 53.683594 Z M 48.289062 53.683594 "/>
<path style=" stroke:none;fill-rule:nonzero;fill:rgb(100%,100%,100%);fill-opacity:1;" d="M 51.695312 53.683594 L 51.695312 51.304688 L 50.855469 51.304688 L 50.855469 50.820312 L 53.132812 50.820312 L 53.132812 51.304688 L 52.28125 51.304688 L 52.28125 53.683594 Z M 51.695312 53.683594 "/>
</g>
</svg>
